<?xml version="1.0" standalone="no"?>
<!DOCTYPE svg PUBLIC "-//W3C//DTD SVG 20010904//EN"
 "http://www.w3.org/TR/2001/REC-SVG-20010904/DTD/svg10.dtd">
<svg version="1.0" xmlns="http://www.w3.org/2000/svg"
 width="272.000000pt" height="270.000000pt" viewBox="0 0 272.000000 270.000000"
 preserveAspectRatio="xMidYMid meet">

<g transform="translate(0.000000,270.000000) scale(0.100000,-0.100000)"
fill="#000000" stroke="none">
<path d="M892 2267 l-424 -424 172 -264 c95 -145 211 -323 258 -396 47 -73 87
-131 88 -130 2 2 -15 147 -97 815 -22 184 -39 336 -36 338 3 3 43 -109 90
-248 229 -681 292 -861 295 -838 1 14 27 349 57 745 30 396 56 744 59 773 4
48 3 52 -17 52 -15 0 -149 -128 -445 -423z"/>
<path d="M1370 2672 c0 -11 9 -131 20 -268 11 -137 38 -485 60 -774 23 -288
42 -525 43 -526 1 -2 87 250 191 558 l189 560 -234 234 c-129 129 -242 234
-251 234 -11 0 -18 -8 -18 -18z"/>
<path d="M1876 2173 c-3 -21 -29 -225 -56 -453 -28 -228 -57 -468 -65 -533 -8
-66 -15 -124 -15 -129 0 -6 61 83 136 198 183 281 235 361 316 482 l68 103
-186 185 c-102 101 -187 184 -189 184 -2 0 -6 -17 -9 -37z"/>
<path d="M297 1672 l-158 -158 88 -85 c100 -95 440 -410 493 -456 l35 -31 -77
237 c-43 130 -108 329 -145 444 -37 114 -69 207 -73 207 -3 0 -76 -71 -163
-158z"/>
<path d="M2165 1533 c-53 -164 -115 -352 -137 -418 -21 -66 -43 -133 -48 -148
-10 -31 -14 -35 385 336 121 113 222 203 223 202 2 -2 -61 -117 -141 -257 -79
-139 -166 -291 -192 -338 -26 -47 -55 -96 -64 -110 -8 -14 105 95 252 241
l267 267 0 43 c0 44 -1 44 -219 261 -120 120 -221 218 -224 218 -3 0 -49 -134
-102 -297z"/>
<path d="M77 1452 c-56 -56 -70 -96 -52 -138 7 -16 127 -141 266 -279 146
-146 244 -235 233 -215 -108 193 -390 680 -394 680 -3 0 -27 -22 -53 -48z"/>
<path d="M2129 743 c-13 -16 -12 -17 4 -4 16 13 21 21 13 21 -2 0 -10 -8 -17
-17z"/>
<path d="M1090 245 c13 -14 26 -25 28 -25 3 0 -5 11 -18 25 -13 14 -26 25 -28
25 -3 0 5 -11 18 -25z"/>
<path d="M1639 253 c-13 -16 -12 -17 4 -4 16 13 21 21 13 21 -2 0 -10 -8 -17
-17z"/>
<path d="M1599 213 c-13 -16 -12 -17 4 -4 16 13 21 21 13 21 -2 0 -10 -8 -17
-17z"/>
</g>
</svg>
